<svg width="50" height="50" viewBox="0 0 50 50" fill="none" xmlns="http://www.w3.org/2000/svg">
<path d="M48.81 2.05C47.9633 1.90333 45.2333 3.16333 40.62 5.83L32.25 12.3L26.03 15.46L24.62 16.83L11.02 15.03L12.54 13.63C12.873 13.3309 13.1716 12.9955 13.43 12.63C13.65 12.31 13.71 12.09 13.62 11.99C13.53 11.89 13.3 11.93 12.96 12.13C12.5749 12.3602 12.2161 12.6318 11.89 12.94L9.78 14.94L6.27 18.2L4.86 19.5L5.52 20.2L6.96 18.83L15.44 27.96L11.89 31.23L3.11 30.23L1 32.23V33.58L4.91 37.8L5.62 37.15L6.27 37.85L9.08 35.24L9.24 35.42L5.47 39.83L8.07 42.64L12.78 39.26L12.94 39.43L10.13 42.04L10.78 42.74L10.08 43.39L13.96 47.58H15.31L17.42 45.58L17.1 36.83L20.61 33.57L29.09 42.7L27.68 44.01L28.33 44.71L29.74 43.4L33.25 40.15L35.36 38.15C35.695 37.8529 35.9938 37.5173 36.25 37.15C36.47 36.83 36.53 36.62 36.43 36.51C36.33 36.4 36.12 36.46 35.78 36.65C35.3876 36.8777 35.0248 37.1532 34.7 37.47L33.19 38.87L32.45 25.18L33.85 23.88L37.46 17.88L44.53 10C47.8633 5.17333 49.32 2.50667 48.9 2L48.81 2.05Z" fill="#FF3E00"/>
<path d="M22.4678 30.9073C21.3381 31.2106 20.1453 30.754 19.48 29.7639C19.2806 29.4757 19.1389 29.1492 19.0633 28.8037C18.9877 28.4582 18.9797 28.1006 19.0398 27.7519C19.0601 27.6374 19.0881 27.5245 19.1235 27.414L19.1896 27.2062L19.3691 27.3424C19.7837 27.657 20.2473 27.8961 20.7399 28.0496L20.8701 28.0904L20.8582 28.2246C20.8422 28.4156 20.8923 28.6062 20.9995 28.7626C21.0972 28.9083 21.2359 29.0194 21.3968 29.081C21.5576 29.1427 21.733 29.1519 21.899 29.1074C21.9752 29.0863 22.0478 29.0534 22.1143 29.0097L25.6188 26.7038C25.7045 26.648 25.7781 26.5744 25.8348 26.4877C25.8915 26.401 25.9301 26.303 25.9481 26.2C25.966 26.0949 25.9636 25.9872 25.9408 25.8831C25.918 25.7789 25.8754 25.6805 25.8154 25.5936C25.7176 25.448 25.5789 25.3368 25.418 25.2751C25.257 25.2134 25.0817 25.2042 24.9155 25.2487C24.8394 25.2697 24.767 25.3026 24.7006 25.3463L23.3632 26.2265C23.1433 26.3709 22.9034 26.4797 22.6516 26.5492C21.522 26.8524 20.3291 26.3959 19.664 25.4056C19.4645 25.1175 19.3229 24.791 19.2472 24.4456C19.1716 24.1001 19.1636 23.7425 19.2237 23.3937C19.2831 23.0519 19.4109 22.7267 19.599 22.4388C19.7871 22.1509 20.0313 21.9067 20.316 21.7219L23.8202 19.4157C24.0402 19.2711 24.2803 19.1622 24.5323 19.0927C25.6619 18.7894 26.8548 19.246 27.52 20.2361C27.7194 20.5243 27.8611 20.8508 27.9367 21.1963C28.0123 21.5418 28.0203 21.8994 27.9602 22.2481C27.9398 22.3626 27.9118 22.4755 27.8765 22.586L27.8105 22.7938L27.631 22.6578C27.2164 22.3431 26.7527 22.1038 26.2601 21.9503L26.1298 21.9095L26.1418 21.7753C26.1576 21.5843 26.1076 21.3938 26.0005 21.2373C25.9028 21.0916 25.7641 20.9805 25.6032 20.9188C25.4423 20.8572 25.267 20.848 25.1009 20.8925C25.0248 20.9136 24.9522 20.9465 24.8857 20.9902L21.3812 23.2962C21.2955 23.3519 21.2219 23.4255 21.1652 23.5122C21.1086 23.5989 21.0701 23.6969 21.0521 23.7999C21.0341 23.905 21.0365 24.0127 21.0592 24.1169C21.082 24.221 21.1246 24.3194 21.1846 24.4063C21.2824 24.552 21.4211 24.6632 21.5821 24.7248C21.743 24.7865 21.9183 24.7957 22.0845 24.7513C22.1607 24.7302 22.2332 24.6973 22.2998 24.6536L23.6368 23.7737C23.8566 23.6291 24.0966 23.5202 24.3484 23.4507C25.478 23.1475 26.6709 23.6041 27.3361 24.5943C27.5355 24.8825 27.6772 25.2089 27.7528 25.5544C27.8284 25.8999 27.8364 26.2574 27.7763 26.6062C27.7169 26.948 27.589 27.2733 27.401 27.5612C27.2129 27.8491 26.9687 28.0934 26.684 28.2783L23.1798 30.5843C22.9598 30.7289 22.7197 30.8378 22.4678 30.9073Z" fill="white"/>
</svg>
